<?xml version="1.0" encoding="utf-8"?>
<!-- Generator: Adobe Illustrator 27.9.0, SVG Export Plug-In . SVG Version: 6.00 Build 0)  -->
<svg version="1.1" id="Layer_1" xmlns="http://www.w3.org/2000/svg" xmlns:xlink="http://www.w3.org/1999/xlink" x="0px" y="0px"
	 viewBox="0 0 1283.7 853.3" style="enable-background:new 0 0 1283.7 853.3;" xml:space="preserve">
<style type="text/css">
	.st0{fill:#1A2D58;}
	.st1{fill:#D1D3D4;}
	.st2{fill:#808285;}
	.st3{fill:#8AE3FF;}
	.st4{fill:#EDED90;stroke:#EFF0A3;stroke-width:3;stroke-miterlimit:10;}
	.st5{fill:#FFFFFF;stroke:#000000;stroke-width:2;stroke-miterlimit:10;}
	.st6{font-family:'ArialMT';}
	.st7{font-size:17px;}
	.st8{font-family:'TimesNewRomanPS-BoldMT';}
	.st9{font-size:15.4px;}
	.st10{fill:#009FB4;}
	.st11{fill:none;stroke:#717375;stroke-width:3;stroke-miterlimit:10;}
	.st12{fill:#717375;}
	.st13{fill:none;stroke:#231F20;stroke-width:2;stroke-miterlimit:10;}
	.st14{fill:#828487;}
	.st15{fill:#231F20;}
	.st16{font-size:15.3965px;}
	.st17{font-size:17.5978px;}
	.st18{font-size:16.9671px;}
	.st19{fill:#FFFFFF;}
	.st20{opacity:0.5;fill:#8AE3FF;enable-background:new    ;}
	.st21{fill:url(#Main_Jet_00000080917118757531600870000001220691954562211243_);}
	.st22{opacity:0;}
	.st23{opacity:0.67;fill:url(#Drop_11_00000047764578774123479740000014315444602540950683_);enable-background:new    ;}
	.st24{opacity:0.67;fill:url(#Drop_10_00000173867154412568008400000001641193293776316306_);enable-background:new    ;}
	.st25{opacity:0.67;fill:url(#Drop_9_00000034807242089858559240000003810338473334568101_);enable-background:new    ;}
	.st26{opacity:0.67;fill:url(#Drop_8_00000056393519122145105110000011872762948652189083_);enable-background:new    ;}
	.st27{opacity:0.67;fill:url(#Drop_7_00000114785622776527530160000017241868789399039878_);enable-background:new    ;}
	.st28{opacity:0.67;fill:url(#Drop_6_00000049913918831517732870000014041314251480725935_);enable-background:new    ;}
	.st29{opacity:0.67;fill:url(#Drop_5_00000008833546125114899420000003989587423688057003_);enable-background:new    ;}
	.st30{opacity:0.67;fill:url(#Drop_4_00000016755077257986854950000008934879822400090249_);enable-background:new    ;}
	.st31{opacity:0.67;fill:url(#Drop_3_00000064324592924170901080000005855454240704113570_);enable-background:new    ;}
	.st32{opacity:0.67;fill:url(#Drop_2_00000176038258409306834510000012179674426669525419_);enable-background:new    ;}
	.st33{opacity:0.67;fill:url(#Drop_1_00000020388742444714555480000016446533460360952749_);enable-background:new    ;}
	.st34{opacity:0.3;}
	.st35{fill:#999899;}
	.st36{fill:#C2C0C2;}
</style>
<g>
	<g>
		
			<image style="overflow:visible;enable-background:new    ;" width="36" height="515" xlink:href="BE12236.png"  transform="matrix(0.8562 0 0 0.8562 982.1879 57.6078)">
		</image>
	</g>
</g>
<g>
	<g>
		
			<image style="overflow:visible;enable-background:new    ;" width="35" height="516" xlink:href="BE1223E.png"  transform="matrix(0.8547 0 0 0.3514 239.3429 60.3922)">
		</image>
	</g>
</g>
<g>
	<g>
		
			<image style="overflow:visible;enable-background:new    ;" width="366" height="510" xlink:href="BE1223F.png"  transform="matrix(8.095858e-02 0 0 8.095858e-02 983.4346 675.6555)">
		</image>
	</g>
</g>
<g>
	<g>
		<g>
			
				<image style="overflow:visible;enable-background:new    ;" width="179" height="509" xlink:href="BE1222C.png"  transform="matrix(0.137 0 0 0.137 1019.6658 551.0873)">
			</image>
		</g>
	</g>
	<g>
		<g>
			
				<image style="overflow:visible;enable-background:new    ;" width="785" height="538" xlink:href="BE1222F.png"  transform="matrix(0.2399 0 0 0.2399 1041.7384 521.4214)">
			</image>
		</g>
	</g>
	<g>
		<g>
			
				<image style="overflow:visible;enable-background:new    ;" width="506" height="134" xlink:href="BE12223.png"  transform="matrix(8.396927e-02 0 0 8.396927e-02 1153.1158 559.4036)">
			</image>
		</g>
	</g>
	<g>
		<g>
			
				<image style="overflow:visible;enable-background:new    ;" width="506" height="127" xlink:href="BE12227.png"  transform="matrix(8.425064e-02 0 0 8.425064e-02 1153.0447 580.123)">
			</image>
		</g>
	</g>
	<g>
		<g>
			
				<image style="overflow:visible;enable-background:new    ;" width="506" height="133" xlink:href="BE12221.png"  transform="matrix(8.401021e-02 0 0 8.401021e-02 1153.1056 600.3298)">
			</image>
		</g>
	</g>
	<g>
		<g>
			
				<image style="overflow:visible;enable-background:new    ;" width="506" height="126" xlink:href="BE12222.png"  transform="matrix(8.428983e-02 0 0 8.428983e-02 1153.0348 621.0499)">
			</image>
		</g>
	</g>
	<g>
		<g>
			
				<image style="overflow:visible;enable-background:new    ;" width="507" height="130" xlink:href="BE12220.png"  transform="matrix(8.354203e-02 0 0 8.354203e-02 1153.1823 539.1556)">
			</image>
		</g>
	</g>
	<g>
		<g>
			
				<image style="overflow:visible;enable-background:new    ;" width="571" height="44" xlink:href="B789EFDE.png"  transform="matrix(0.2413 0 0 0.2413 1067.0256 692.2833)">
			</image>
		</g>
	</g>
	<path class="st0" d="M1204.6,692.4h-137.5c6.9-0.5,33-3.5,46.8-29.7c1.7-3.3,3.4-7.3,4.8-12.1c11.7,0,23.3,0,35,0
		c1.1,4.3,2.4,7.9,3.9,11.1C1170.4,688.8,1198.2,691.9,1204.6,692.4z"/>
	<g>
		<g>
			
				<image style="overflow:visible;enable-background:new    ;" width="424" height="504" xlink:href="B789EFDA.png"  transform="matrix(5.274914e-02 0 0 5.274914e-02 987.097 508.081)">
			</image>
		</g>
	</g>
	<g>
		<g>
			
				<image style="overflow:visible;enable-background:new    ;" width="510" height="264" xlink:href="B789EFC5.png"  transform="matrix(9.424879e-02 0 0 9.424879e-02 974.2465 489.9596)">
			</image>
		</g>
	</g>
	<g>
		<g>
			
				<image style="overflow:visible;enable-background:new    ;" width="424" height="497" xlink:href="B789EFC6.png"  transform="matrix(5.318040e-02 0 0 5.318040e-02 987.0056 634.7756)">
			</image>
		</g>
	</g>
	<g>
		<g>
			
				<image style="overflow:visible;enable-background:new    ;" width="510" height="267" xlink:href="B789EFC4.png"  transform="matrix(9.402199e-02 0 0 9.402199e-02 974.3043 654.1492)">
			</image>
		</g>
	</g>
	<rect x="984.2" y="529.8" class="st1" width="28.1" height="111.4"/>
	<polygon class="st0" points="975.4,620.8 964.8,615 964.8,557 975.4,551.2 	"/>
	<path class="st2" d="M1012.3,641.2L1012.3,641.2V529.8l0,0c5.2,0,9.4,4.2,9.4,9.4v92.7C1021.7,637,1017.5,641.2,1012.3,641.2z"/>
	<path class="st2" d="M984.2,641.2L984.2,641.2c-5.2,0-9.4-4.2-9.4-9.4v-92.7c0-5.2,4.2-9.4,9.4-9.4l0,0V641.2z"/>
</g>
<g>
	<g>
		<g>
			
				<image style="overflow:visible;enable-background:new    ;" width="2862" height="1057" xlink:href="B789EFC8.png"  transform="matrix(0.2401 0 0 0.2401 175.9855 548.2992)">
			</image>
		</g>
	</g>
</g>
<g>
	<g>
		
			<image style="overflow:visible;enable-background:new    ;" width="511" height="108" xlink:href="B789EFD0.png"  transform="matrix(0.276 0 0 0.276 849.728 702.5952)">
		</image>
	</g>
</g>
<g>
	<g>
		
			<image style="overflow:visible;enable-background:new    ;" width="510" height="189" xlink:href="B789EFD6.png"  transform="matrix(1.455 0 0 0.1588 253.5532 39.7502)">
		</image>
	</g>
</g>
<rect id="Water_1" x="849.8" y="707.6" class="st3" width="140.1" height="19.4"/>
<rect id="Water_2_00000178177592295888132300000003812885317886448053_" x="988.2" y="679.1" class="st3" width="19.8" height="22.6"/>
<rect id="Water_3" x="988.2" y="260" class="st3" width="19.8" height="230"/>
<rect id="Water_4_00000018221326492914578470000014473808141724045220_" x="988.2" y="60.7" class="st3" width="19.8" height="191.7"/>
<ellipse id="Suction_Pipe_Opening" class="st3" cx="849.8" cy="717.3" rx="2.9" ry="9.7"/>
<circle id="Suction_Pipe_Corner" class="st4" cx="995.6" cy="714.7" r="17.4"/>
<g>
	<g>
		
			<image style="overflow:visible;enable-background:new    ;" width="662" height="218" xlink:href="B789F019.png"  transform="matrix(0.9982 0 0 0.9982 176.6515 584.7543)">
		</image>
	</g>
</g>
<rect id="Water_8_00000181053212070445114170000008715850457176008092_" x="245.2" y="90.7" class="st3" width="18.7" height="150.4"/>
<rect id="Water_7_00000154414897353839577140000002405472591546814366_" x="245.2" y="58.7" class="st3" width="18.7" height="75.4"/>
<g>
	<g>
		
			<image style="overflow:visible;enable-background:new    ;" width="512" height="177" xlink:href="B789F020.png"  transform="matrix(0.225 0 0 0.225 34.7503 228.533)">
		</image>
	</g>
</g>
<path class="st5" d="M136.1,265.3H47.3c-5.4,0-9.8-4.3-9.8-9.7v-10.2c0-5.3,4.3-9.7,9.8-9.7H136c5.4,0,9.8,4.3,9.8,9.7v10.2
	C145.8,260.9,141.5,265.3,136.1,265.3z"/>
<text transform="matrix(0.9229 0 0 1 47.252 255.834)" class="st6 st7">100 kg/cm^2</text>
<text transform="matrix(1.0397 0 0 1 46.0864 217.8086)" class="st8 st9">Pressure (P1)</text>
<g>
	<g>
		
			<image style="overflow:visible;enable-background:new    ;" width="512" height="177" xlink:href="B789F020.png"  transform="matrix(0.225 0 0 0.225 710.5 497.2997)">
		</image>
	</g>
</g>
<path class="st5" d="M811.8,534.1H723c-5.4,0-9.8-4.3-9.8-9.7v-10.2c0-5.3,4.3-9.7,9.8-9.7h88.7c5.4,0,9.8,4.3,9.8,9.7v10.2
	C821.5,529.7,817.2,534.1,811.8,534.1z"/>
<text transform="matrix(0.9229 0 0 1 723.0016 524.6007)" class="st6 st7">100 kg/cm^2</text>
<text transform="matrix(1.0397 0 0 1 721.8361 486.5753)" class="st8 st9">Pressure (P2)</text>
<text transform="matrix(1.0397 0 0 1 332.9282 225.96)" class="st8 st9">Handle to </text>
<text transform="matrix(1.0397 0 0 1 318.8926 242.46)" class="st8 st9">Control Vanes</text>
<text transform="matrix(1.0397 0 0 1 904.6035 247.0625)" class="st8 st9">Gate</text>
<text transform="matrix(1.0397 0 0 1 901.1836 265.5625)" class="st8 st9">Valve</text>
<ellipse id="Suction_Pipe_Opening_00000017507933031533233400000005167268999278761121_" class="st3" cx="910.8" cy="54.8" rx="3.4" ry="10"/>
<rect id="Water_5_00000121246892066337760400000013494994064657416380_" x="253.6" y="44.9" class="st3" width="735.6" height="19.9"/>
<circle id="Suction_Pipe_Corner_00000035518070580283282220000008639339393854298022_" class="st4" cx="994.6" cy="58.3" r="17.4"/>
<g id="Flow_valve">
	<g>
		<g>
			
				<image style="overflow:visible;enable-background:new    ;" width="510" height="390" xlink:href="B789F0F6.png"  transform="matrix(0.12 0 0 0.12 971.6897 230.4394)">
			</image>
		</g>
	</g>
	<g>
		<g>
			
				<image style="overflow:visible;enable-background:new    ;" width="504" height="230" xlink:href="B789F0FB.png"  transform="matrix(4.362986e-02 0 0 4.362986e-02 1026.6189 248.822)">
			</image>
		</g>
	</g>
	<g>
		<g>
			
				<image style="overflow:visible;enable-background:new    ;" width="281" height="511" xlink:href="B789F0FC.png"  transform="matrix(8.215453e-02 0 0 8.215453e-02 1036.8751 232.8095)">
			</image>
		</g>
	</g>
</g>
<g id="Arrow_1">
	<rect x="996.7" y="426.2" class="st10" width="3.2" height="15.8"/>
	<polyline class="st10" points="992.3,426.2 998.3,418 1004.3,426.2 	"/>
</g>
<g id="Arrow_2">
	<rect x="996.7" y="335.2" class="st10" width="3.2" height="15.8"/>
	<polyline class="st10" points="992.3,335.2 998.3,327 1004.3,335.2 	"/>
</g>
<g id="Arrow_6">
	<rect x="665.1" y="53.1" class="st10" width="15.8" height="3.2"/>
	<polyline class="st10" points="665.1,60.7 656.9,54.7 665.1,48.7 	"/>
</g>
<g id="Arrow_7">
	<rect x="577.1" y="53.1" class="st10" width="15.8" height="3.2"/>
	<polyline class="st10" points="577.1,60.7 568.9,54.7 577.1,48.7 	"/>
</g>
<g id="Arrow_9_00000020365401400691123350000005359403510993090479_">
	<rect x="404.3" y="55.1" class="st10" width="15.8" height="3.2"/>
	<polyline class="st10" points="404.3,62.7 396.1,56.7 404.3,50.7 	"/>
</g>
<g id="Arrow_10">
	<rect x="316.3" y="55.1" class="st10" width="15.8" height="3.2"/>
	<polyline class="st10" points="316.3,62.7 308.1,56.7 316.3,50.7 	"/>
</g>
<g id="Arrow_3">
	<rect x="996.7" y="190.8" class="st10" width="3.2" height="15.8"/>
	<polyline class="st10" points="992.3,190.8 998.3,182.6 1004.3,190.8 	"/>
</g>
<g id="Arrow_11">
	<rect x="253.4" y="171.4" class="st10" width="3.2" height="15.8"/>
	<polyline class="st10" points="261,187.2 255,195.4 249,187.2 	"/>
</g>
<g id="Arrow_4">
	<rect x="996.7" y="107.8" class="st10" width="3.2" height="15.8"/>
	<polyline class="st10" points="992.3,107.8 998.3,99.6 1004.3,107.8 	"/>
</g>
<g id="Arrow_5">
	<rect x="943.9" y="53.5" class="st10" width="15.8" height="3.2"/>
	<polyline class="st10" points="943.9,61.1 935.7,55.1 943.9,49.1 	"/>
</g>
<g id="Arrow_5_00000169536371853098591570000007380055915568339387_">
	<rect x="855.6" y="53.5" class="st10" width="15.8" height="3.2"/>
	<polyline class="st10" points="855.6,61.1 847.4,55.1 855.6,49.1 	"/>
</g>
<g id="Arrow_5_00000042710576732350765750000000619327311567979701_">
	<rect x="760.2" y="52.9" class="st10" width="15.8" height="3.2"/>
	<polyline class="st10" points="760.2,60.5 752,54.5 760.2,48.5 	"/>
</g>
<g id="Arrow_8">
	<rect x="488.1" y="53.5" class="st10" width="15.8" height="3.2"/>
	<polyline class="st10" points="488.1,61.1 479.9,55.1 488.1,49.1 	"/>
</g>
<g>
	<g>
		
			<image style="overflow:visible;enable-background:new    ;" width="390" height="509" xlink:href="B789F0ED.png"  transform="matrix(-1.634357e-17 8.897027e-02 -0.1248 -2.292539e-17 285.2128 236.7832)">
		</image>
	</g>
</g>
<g>
	<g>
		
			<image style="overflow:visible;enable-background:new    ;" width="508" height="406" xlink:href="46C8834C.png"  transform="matrix(0.1251 0 0 9.079347e-02 221.6684 249.5381)">
		</image>
	</g>
</g>
<circle id="Suction_Pipe_Corner_00000054262970459153180510000014349526325921140145_" class="st4" cx="257.3" cy="56.6" r="17.4"/>
<line class="st11" x1="510.9" y1="218.2" x2="514.8" y2="342.6"/>
<g>
	<g>
		
			<image style="overflow:visible;enable-background:new    ;" width="513" height="498" xlink:href="B789F004.png"  transform="matrix(0.1643 0 0 0.1643 511.1895 297.1019)">
		</image>
	</g>
</g>
<g>
	<g>
		
			<image style="overflow:visible;enable-background:new    ;" width="460" height="514" xlink:href="B789F005.png"  transform="matrix(0.5413 0 0 0.5413 432.7195 204.2867)">
		</image>
	</g>
</g>
<g>
	<g>
		
			<image style="overflow:visible;enable-background:new    ;" width="512" height="401" xlink:href="46C883A1.png"  transform="matrix(0.3362 0 0 0.3362 386.6969 330.7446)">
		</image>
	</g>
</g>
<path class="st11" d="M576.5,363.1"/>
<g>
	<path class="st11" d="M585.4,219.1l3.8,123.4c0.1,3.5-0.1,9.9-3.3,16.9c-2.2,4.9-8.4,8.5-11.2,10.3"/>
	<path class="st12" d="M575.6,370.9c-0.3,0.1-1.6,0.4-2.8,0.2c-0.7-0.1-1.3-0.4-1.4-0.4c-0.3-0.1-0.1,0-0.2-0.1
		c0.6-0.4,2.3-1.9,2.9-2.3C575.1,368.9,575.6,370,575.6,370.9z"/>
</g>
<g id="Weight1_Gauge">
	<g>
		<g>
			
				<image style="overflow:visible;enable-background:new    ;" width="493" height="503" xlink:href="B789F07A.png"  transform="matrix(8.939152e-02 0 0 8.939152e-02 490.5707 241.7308)">
			</image>
		</g>
	</g>
	<g>
		<g>
			
				<image style="overflow:visible;enable-background:new    ;" width="504" height="488" xlink:href="B789F078.png"  transform="matrix(0.1029 0 0 0.1029 486.4382 238.8728)">
			</image>
		</g>
	</g>
	<g>
		<line class="st13" x1="531" y1="264.1" x2="527.4" y2="264.1"/>
		<line class="st13" x1="530.1" y1="270.3" x2="526.6" y2="269.3"/>
		<line class="st13" x1="527.5" y1="275.8" x2="524.4" y2="273.7"/>
		<line class="st13" x1="523.5" y1="280.1" x2="521.2" y2="277.2"/>
		<line class="st13" x1="518.3" y1="283" x2="517.1" y2="279.5"/>
		<line class="st13" x1="512.4" y1="284" x2="512.4" y2="280.3"/>
		<line class="st13" x1="506.4" y1="283" x2="507.7" y2="279.5"/>
		<line class="st13" x1="501.2" y1="280.2" x2="503.6" y2="277.2"/>
		<line class="st13" x1="497.2" y1="275.8" x2="500.3" y2="273.7"/>
		<line class="st13" x1="494.5" y1="270.4" x2="498.2" y2="269.2"/>
		<line class="st13" x1="493.6" y1="264.1" x2="497.4" y2="264.1"/>
		<line class="st13" x1="494.5" y1="257.8" x2="498.2" y2="258.9"/>
		<line class="st13" x1="497.2" y1="252.3" x2="500.4" y2="254.5"/>
		<line class="st13" x1="501.2" y1="248" x2="503.6" y2="251"/>
		<line class="st13" x1="506.4" y1="245.1" x2="507.7" y2="248.8"/>
		<line class="st13" x1="512.4" y1="244" x2="512.4" y2="248"/>
	</g>
	<g>
		<line class="st13" x1="531" y1="264.1" x2="527.4" y2="264.1"/>
		<line class="st13" x1="530.4" y1="258.8" x2="526.8" y2="259.7"/>
		<line class="st13" x1="528.6" y1="254.1" x2="525.3" y2="255.9"/>
		<line class="st13" x1="525.7" y1="250" x2="522.9" y2="252.6"/>
		<line class="st13" x1="521.9" y1="246.9" x2="519.8" y2="250.1"/>
		<line class="st13" x1="517.4" y1="244.8" x2="516.3" y2="248.5"/>
		<line class="st13" x1="512.4" y1="244" x2="512.4" y2="248"/>
	</g>
	<polygon class="st14" points="512.6,263.2 505.2,255.8 506.3,254.8 502,253.9 503,258.1 504.2,257 511.5,264.3 	"/>
	<path class="st15" d="M512,261.6c1.2,0,2.1,0.9,2.1,2.1s-0.9,2.1-2.1,2.1s-2.1-0.9-2.1-2.1S510.8,261.6,512,261.6z"/>
</g>
<g id="Weight_2_Gauge">
	<g>
		<g>
			
				<image style="overflow:visible;enable-background:new    ;" width="497" height="503" xlink:href="B789F055.png"  transform="matrix(8.903684e-02 0 0 8.903684e-02 564.7781 241.82)">
			</image>
		</g>
	</g>
	<g>
		<g>
			
				<image style="overflow:visible;enable-background:new    ;" width="506" height="488" xlink:href="B789F05B.png"  transform="matrix(0.1027 0 0 0.1027 560.6866 238.9242)">
			</image>
		</g>
	</g>
	<g>
		<line class="st13" x1="605.3" y1="264.1" x2="601.7" y2="264.1"/>
		<line class="st13" x1="604.4" y1="270.3" x2="600.9" y2="269.3"/>
		<line class="st13" x1="601.8" y1="275.8" x2="598.7" y2="273.7"/>
		<line class="st13" x1="597.8" y1="280.1" x2="595.5" y2="277.2"/>
		<line class="st13" x1="592.6" y1="283" x2="591.4" y2="279.5"/>
		<line class="st13" x1="586.7" y1="284" x2="586.7" y2="280.3"/>
		<line class="st13" x1="580.7" y1="283" x2="582" y2="279.5"/>
		<line class="st13" x1="575.5" y1="280.2" x2="577.9" y2="277.2"/>
		<line class="st13" x1="571.5" y1="275.8" x2="574.6" y2="273.7"/>
		<line class="st13" x1="568.8" y1="270.4" x2="572.5" y2="269.2"/>
		<line class="st13" x1="567.9" y1="264.1" x2="571.7" y2="264.1"/>
		<line class="st13" x1="568.8" y1="257.8" x2="572.5" y2="258.9"/>
		<line class="st13" x1="571.5" y1="252.3" x2="574.7" y2="254.5"/>
		<line class="st13" x1="575.5" y1="248" x2="577.9" y2="251"/>
		<line class="st13" x1="580.7" y1="245.1" x2="582" y2="248.8"/>
		<line class="st13" x1="586.7" y1="244" x2="586.7" y2="248"/>
	</g>
	<g>
		<line class="st13" x1="605.3" y1="264.1" x2="601.7" y2="264.1"/>
		<line class="st13" x1="604.7" y1="258.8" x2="601.1" y2="259.7"/>
		<line class="st13" x1="602.9" y1="254.1" x2="599.6" y2="255.9"/>
		<line class="st13" x1="600" y1="250" x2="597.2" y2="252.6"/>
		<line class="st13" x1="596.2" y1="246.9" x2="594.1" y2="250.1"/>
		<line class="st13" x1="591.7" y1="244.8" x2="590.6" y2="248.5"/>
		<line class="st13" x1="586.7" y1="244" x2="586.7" y2="248"/>
	</g>
	<polygon class="st14" points="586.9,263.2 579.5,255.8 580.6,254.8 576.3,253.9 577.3,258.1 578.5,257 585.8,264.3 	"/>
	<circle class="st15" cx="586.3" cy="263.7" r="2.1"/>
</g>
<text transform="matrix(1.0397 0 0 1 473.4346 149.1401)" class="st8 st16">Weight 1</text>
<text transform="matrix(1.0397 0 0 1 568.0088 149.9609)" class="st8 st16">Weight 2</text>
<text transform="matrix(1.0397 0 0 1 467.2051 241.8198)" class="st8 st17">W1</text>
<text transform="matrix(1.0397 0 0 1 613.7578 251.2168)" class="st8 st17">W2</text>
<g>
	<g>
		
			<image style="overflow:visible;enable-background:new    ;" width="507" height="265" xlink:href="B789F021.png"  transform="matrix(0.14 0 0 0.14 468.1269 162.6464)">
		</image>
	</g>
</g>
<path class="st5" d="M524.1,195.1h-41.5c-5,0-9-4-9-9v-5.2c0-5,4-9,9-9h41.5c5,0,9,4,9,9v5.2C533.1,191,529.1,195.1,524.1,195.1z"/>
<text transform="matrix(0.9229 0 0 1 478.4551 189.1377)" class="st6 st18">100 kg</text>
<g>
	<g>
		
			<image style="overflow:visible;enable-background:new    ;" width="507" height="266" xlink:href="B789F038.png"  transform="matrix(0.1399 0 0 0.1399 561.1553 163.5915)">
		</image>
	</g>
</g>
<path class="st5" d="M617.1,196.1h-41.5c-5,0-9-4-9-9v-5.2c0-5,4-9,9-9h41.5c5,0,9,4,9,9v5.2C626.1,192,622.1,196.1,617.1,196.1z"/>
<text transform="matrix(0.9229 0 0 1 573.4541 190.1377)" class="st6 st18">100 kg</text>
<text transform="matrix(1.0397 0 0 1 1126.9551 183.3281)" class="st8 st16">Valve</text>
<text transform="matrix(1.0397 0 0 1 1117.1826 201.8281)" class="st8 st16">Opening</text>
<g>
	<g>
		
			<image style="overflow:visible;enable-background:new    ;" width="507" height="266" xlink:href="B789F038.png"  transform="matrix(0.1399 0 0 0.1399 1110.6619 210.9586)">
		</image>
	</g>
</g>
<path class="st5" d="M1166.6,243.5h-41.5c-5,0-9-4-9-9v-5.2c0-5,4-9,9-9h41.5c5,0,9,4,9,9v5.2
	C1175.6,239.4,1171.6,243.5,1166.6,243.5z"/>
<text transform="matrix(1.0273 0 0 1 1121.9385 238.5049)" class="st6 st18">100 %</text>
<text transform="matrix(1.0397 0 0 1 589.1943 401.1904)" class="st8 st16">RPM</text>
<g>
	<g>
		
			<image style="overflow:visible;enable-background:new    ;" width="507" height="266" xlink:href="B789F038.png"  transform="matrix(0.1399 0 0 0.1399 573.5647 411.8207)">
		</image>
	</g>
</g>
<path class="st5" d="M629.5,444.3H588c-5,0-9-4-9-9v-5.2c0-5,4-9,9-9h41.5c5,0,9,4,9,9v5.2C638.5,440.2,634.5,444.3,629.5,444.3z"/>
<text transform="matrix(0.9229 0 0 1 589.9531 439.3672)" class="st6 st18">1000</text>
<g id="Handle">
	<g>
		<g>
			
				<image style="overflow:visible;enable-background:new    ;" width="263" height="511" xlink:href="46C883A0.png"  transform="matrix(0.293 5.954002e-02 -5.954002e-02 0.293 341.1325 289.4066)">
			</image>
		</g>
	</g>
	<g>
		<g>
			
				<image style="overflow:visible;enable-background:new    ;" width="506" height="496" xlink:href="46C8839B.png"  transform="matrix(9.103571e-02 1.849846e-02 -1.849846e-02 9.103571e-02 329.8729 263.7)">
			</image>
		</g>
	</g>
</g>
<path id="Back_Casing" class="st19" d="M367.8,346.3c48.2-4.3,82.1,25.5,86.6,29.6c5.9,5.4,37.7,35.4,37.6,83.7
	c-0.1,40.5-22.6,67.6-30.4,76.1c-27.1,29.5-64.4,39.1-92.3,37.8c-17.9-0.9-34-6.4-46-10.4c-17.8-6-27.5-11.9-34-16.5
	c0,0-7.5-4.9-12.7-10.5c-31.5-33.7-14.5-93.4-13.1-97.9C275.4,398.1,312.4,351.3,367.8,346.3z"/>
<path class="st20" d="M491.7,452.9c0.5,9.6,1.6,47.9-26,80.7c-32.6,38.9-80.1,40.1-89.6,40.3c-27.7,0.7-49.4-8.5-60.3-13.2
	c-10.5-4.5-26-11.3-39.3-24.6c-29.5-29.6-28.7-72.3-28.1-84.7"/>
<linearGradient id="Main_Jet_00000059287162117883925640000015821422455950664888_" gradientUnits="userSpaceOnUse" x1="283.2" y1="983.35" x2="380.6" y2="983.35" gradientTransform="matrix(1 0 0 -1 0 1514)">
	<stop  offset="4.155676e-07" style="stop-color:#8AE3FF"/>
	<stop  offset="0.167" style="stop-color:#97E6FF"/>
	<stop  offset="0.4748" style="stop-color:#B8EEFF"/>
	<stop  offset="0.8861" style="stop-color:#EFFBFF"/>
	<stop  offset="1" style="stop-color:#FFFFFF"/>
</linearGradient>
<rect id="Main_Jet" x="283.2" y="520.8" style="fill:url(#Main_Jet_00000059287162117883925640000015821422455950664888_);" width="97.4" height="19.7"/>
<g id="Turbine_Wheel">
	<g>
		
			<image style="overflow:visible;enable-background:new    ;" width="498" height="514" xlink:href="46C88380.png"  transform="matrix(0.3548 0 0 0.3548 295.6546 372.0912)">
		</image>
	</g>
</g>
<g id="Drops" class="st22">
	
		<radialGradient id="Drop_11_00000107553087135621725590000005794747259298813625_" cx="-767.8837" cy="279.3319" r="9.422" gradientTransform="matrix(0.3283 3.244083e-02 -4.242862e-02 0.4294 620.768 441.2143)" gradientUnits="userSpaceOnUse">
		<stop  offset="0.3309" style="stop-color:#51A9F0;stop-opacity:0.462"/>
		<stop  offset="0.9755" style="stop-color:#51A9F0"/>
	</radialGradient>
	
		<path id="Drop_11" style="opacity:0.67;fill:url(#Drop_11_00000107553087135621725590000005794747259298813625_);enable-background:new    ;" d="
		M360,536.1c-0.2,1.7-1.9,3.5-3.6,3.3s-2.9-1.9-2.7-4c0.2-2.6,3.8-5.5,3.8-5.5S360.3,533.4,360,536.1z"/>
	
		<radialGradient id="Drop_10_00000135675981248142408580000008372684613095281044_" cx="-653.3176" cy="280.0265" r="9.422" gradientTransform="matrix(0.3298 9.072594e-03 -1.186582e-02 0.4313 572.4555 432.4464)" gradientUnits="userSpaceOnUse">
		<stop  offset="0.3309" style="stop-color:#51A9F0;stop-opacity:0.462"/>
		<stop  offset="0.9755" style="stop-color:#51A9F0"/>
	</radialGradient>
	
		<path id="Drop_10" style="opacity:0.67;fill:url(#Drop_10_00000135675981248142408580000008372684613095281044_);enable-background:new    ;" d="
		M356.9,547c-0.1,1.7-1.6,3.6-3.3,3.5c-1.7-0.1-3.1-1.7-3-3.8c0-2.6,3.4-5.8,3.4-5.8S357,544.2,356.9,547z"/>
	
		<radialGradient id="Drop_9_00000173150290174743417300000009506786072894566311_" cx="-517.2526" cy="249.2648" r="9.4128" gradientTransform="matrix(0.3299 -5.544094e-03 7.251027e-03 0.4314 544.2417 435.3505)" gradientUnits="userSpaceOnUse">
		<stop  offset="0.3309" style="stop-color:#51A9F0;stop-opacity:0.462"/>
		<stop  offset="0.9755" style="stop-color:#51A9F0"/>
	</radialGradient>
	
		<path id="Drop_9" style="opacity:0.67;fill:url(#Drop_9_00000173150290174743417300000009506786072894566311_);enable-background:new    ;" d="
		M378.6,545.3c0,1.7-1.5,3.7-3.2,3.7s-3.1-1.6-3.2-3.7c-0.1-2.6,3.2-5.9,3.2-5.9S378.6,542.5,378.6,545.3z"/>
	
		<radialGradient id="Drop_8_00000098904136566338503360000011217606134717801608_" cx="-446.5129" cy="273.1371" r="9.4103" gradientTransform="matrix(0.3299 -5.544094e-03 7.251027e-03 0.4314 544.2417 435.3505)" gradientUnits="userSpaceOnUse">
		<stop  offset="0.3309" style="stop-color:#51A9F0;stop-opacity:0.462"/>
		<stop  offset="0.9755" style="stop-color:#51A9F0"/>
	</radialGradient>
	
		<path id="Drop_8" style="opacity:0.67;fill:url(#Drop_8_00000098904136566338503360000011217606134717801608_);enable-background:new    ;" d="
		M402.1,555.2c0,1.7-1.5,3.7-3.2,3.7s-3.1-1.6-3.2-3.7c-0.1-2.6,3.2-5.9,3.2-5.9S402.1,552.4,402.1,555.2z"/>
	
		<radialGradient id="Drop_7_00000131368125856127188300000013061269905453257896_" cx="-467.6342" cy="256.1791" r="9.422" gradientTransform="matrix(0.3299 -5.544094e-03 7.251027e-03 0.4314 544.2417 435.3505)" gradientUnits="userSpaceOnUse">
		<stop  offset="0.3309" style="stop-color:#51A9F0;stop-opacity:0.462"/>
		<stop  offset="0.9755" style="stop-color:#51A9F0"/>
	</radialGradient>
	
		<path id="Drop_7" style="opacity:0.67;fill:url(#Drop_7_00000131368125856127188300000013061269905453257896_);enable-background:new    ;" d="
		M395,548c0,1.7-1.5,3.7-3.2,3.7s-3.1-1.6-3.2-3.7c-0.1-2.6,3.2-5.9,3.2-5.9S395,545.2,395,548z"/>
	
		<radialGradient id="Drop_6_00000129898086549695948460000013329478547042820256_" cx="-592.5524" cy="277.8965" r="9.422" gradientTransform="matrix(0.3295 1.735722e-02 -2.270110e-02 0.4309 586.606 433.074)" gradientUnits="userSpaceOnUse">
		<stop  offset="0.3309" style="stop-color:#51A9F0;stop-opacity:0.462"/>
		<stop  offset="0.9755" style="stop-color:#51A9F0"/>
	</radialGradient>
	
		<path id="Drop_6" style="opacity:0.67;fill:url(#Drop_6_00000129898086549695948460000013329478547042820256_);enable-background:new    ;" d="
		M388.3,542.3c-0.1,1.7-1.7,3.5-3.4,3.4c-1.7-0.1-3-1.8-2.9-3.9c0.1-2.6,3.6-5.7,3.6-5.7S388.4,539.5,388.3,542.3z"/>
	
		<radialGradient id="Drop_5_00000171697261711374635850000005495558166946080899_" cx="-29.5296" cy="238.2719" r="9.42" gradientTransform="matrix(0.3179 -8.825833e-02 0.1154 0.4158 377.7386 436.0776)" gradientUnits="userSpaceOnUse">
		<stop  offset="0.3309" style="stop-color:#51A9F0;stop-opacity:0.462"/>
		<stop  offset="0.9755" style="stop-color:#51A9F0"/>
	</radialGradient>
	
		<path id="Drop_5" style="opacity:0.67;fill:url(#Drop_5_00000171697261711374635850000005495558166946080899_);enable-background:new    ;" d="
		M398.8,536.5c0.4,1.7-0.5,3.9-2.2,4.3c-1.7,0.4-3.4-0.7-4-2.7c-0.7-2.5,1.6-6.5,1.6-6.5S398.1,533.8,398.8,536.5z"/>
	
		<radialGradient id="Drop_4_00000084498580847786017650000004339990872855232958_" cx="-708.1184" cy="306.834" r="9.422" gradientTransform="matrix(0.3288 2.761459e-02 -3.611648e-02 0.43 608.3481 438.5049)" gradientUnits="userSpaceOnUse">
		<stop  offset="0.3309" style="stop-color:#51A9F0;stop-opacity:0.462"/>
		<stop  offset="0.9755" style="stop-color:#51A9F0"/>
	</radialGradient>
	
		<path id="Drop_4" style="opacity:0.67;fill:url(#Drop_4_00000084498580847786017650000004339990872855232958_);enable-background:new    ;" d="
		M367.6,550.7c-0.2,1.7-1.8,3.5-3.5,3.3s-3-1.9-2.8-4c0.2-2.6,3.8-5.6,3.8-5.6S367.9,547.9,367.6,550.7z"/>
	
		<radialGradient id="Drop_3_00000103232022552528983710000014701711509347532967_" cx="-648.1482" cy="309.8445" r="9.422" gradientTransform="matrix(0.3298 1.056490e-02 -1.381758e-02 0.4313 575.7897 430.2845)" gradientUnits="userSpaceOnUse">
		<stop  offset="0.3309" style="stop-color:#51A9F0;stop-opacity:0.462"/>
		<stop  offset="0.9755" style="stop-color:#51A9F0"/>
	</radialGradient>
	
		<path id="Drop_3" style="opacity:0.67;fill:url(#Drop_3_00000103232022552528983710000014701711509347532967_);enable-background:new    ;" d="
		M360.9,556.7c-0.1,1.7-1.6,3.6-3.4,3.5s-3.1-1.7-3-3.8c0.1-2.6,3.5-5.7,3.5-5.7S361.1,553.9,360.9,556.7z"/>
	
		<radialGradient id="Drop_2_00000019641520625011401650000008687889134206220950_" cx="-56.3501" cy="252.4082" r="9.4216" gradientTransform="matrix(0.3171 -9.125378e-02 0.1193 0.4147 371.9338 445.775)" gradientUnits="userSpaceOnUse">
		<stop  offset="0.3309" style="stop-color:#51A9F0;stop-opacity:0.462"/>
		<stop  offset="0.9755" style="stop-color:#51A9F0"/>
	</radialGradient>
	
		<path id="Drop_2" style="opacity:0.67;fill:url(#Drop_2_00000019641520625011401650000008687889134206220950_);enable-background:new    ;" d="
		M387.1,554.3c0.4,1.7-0.5,3.9-2.1,4.4c-1.7,0.4-3.4-0.7-4-2.7c-0.7-2.5,1.5-6.5,1.5-6.5S386.4,551.6,387.1,554.3z"/>
	
		<radialGradient id="Drop_1_00000092418785781312363370000014417693060035185086_" cx="-892.6221" cy="366.572" r="9.422" gradientTransform="matrix(0.3219 7.227602e-02 -9.452819e-02 0.421 693.7421 467.8161)" gradientUnits="userSpaceOnUse">
		<stop  offset="0.3309" style="stop-color:#51A9F0;stop-opacity:0.462"/>
		<stop  offset="0.9755" style="stop-color:#51A9F0"/>
	</radialGradient>
	
		<path id="Drop_1" style="opacity:0.67;fill:url(#Drop_1_00000092418785781312363370000014417693060035185086_);enable-background:new    ;" d="
		M375,557.9c-0.4,1.7-2.3,3.2-3.9,2.8c-1.7-0.4-2.7-2.3-2.2-4.3c0.5-2.5,4.5-5,4.5-5S375.6,555.2,375,557.9z"/>
</g>
<g class="st34">
	<g>
		
			<image style="overflow:visible;enable-background:new    ;" width="226" height="229" xlink:href="46C883FF.png"  transform="matrix(1.0045 0 0 1.0051 267.4909 345.7364)">
		</image>
	</g>
</g>
<g>
	<g>
		
			<image style="overflow:visible;enable-background:new    ;" width="512" height="244" xlink:href="46C883F6.png"  transform="matrix(0.1973 0 0 0.1973 376.7661 435.7559)">
		</image>
	</g>
</g>
<g>
	<g>
		
			<image style="overflow:visible;enable-background:new    ;" width="222" height="511" xlink:href="46C883F5.png"  transform="matrix(0.2172 0 0 0.2172 449.8667 457.771)">
		</image>
	</g>
</g>
<rect id="Water_8" x="456.5" y="468.8" class="st3" width="34.9" height="99.5"/>
<rect id="Water_7" x="387.4" y="442.4" class="st3" width="88" height="35.3"/>
<circle id="Tank_Empty_Corner_00000047032647796746933340000001603408743156292488_" class="st35" cx="382.4" cy="459.7" r="24.4"/>
<circle id="Tank_Empty_Corner_00000165940050214422900460000010979325154365749422_" class="st35" cx="471.7" cy="462.4" r="26.6"/>
<g>
	<g>
		
			<image style="overflow:visible;enable-background:new    ;" width="134" height="514" xlink:href="46C883A6.png"  transform="matrix(0.5408 0 0 0.5408 224.7709 274.8524)">
		</image>
	</g>
</g>
<g id="Pressure_Reading">
	<g>
		<g>
			
				<image style="overflow:visible;enable-background:new    ;" width="506" height="139" xlink:href="B789F01C.png"  transform="matrix(-0.1008 0 0 0.1008 532.6622 521.5027)">
			</image>
		</g>
	</g>
	<g id="Fringe_2_00000112622058946311706200000016325904198235335051_">
		<g>
			
				<image style="overflow:visible;enable-background:new    ;" width="328" height="505" xlink:href="../Venturimeter Exp/C52FA757.png"  transform="matrix(5.787439e-02 0 0 -5.787439e-02 523.2447 543.1222)">
			</image>
		</g>
	</g>
	<g>
		<g>
			
				<image style="overflow:visible;enable-background:new    ;" width="288" height="508" xlink:href="B789F02A.png"  transform="matrix(-5.909139e-02 0 0 5.909139e-02 546.1489 513.4997)">
			</image>
		</g>
	</g>
	<g>
		<g>
			
				<image style="overflow:visible;enable-background:new    ;" width="509" height="92" xlink:href="B789F02B.png"  transform="matrix(-0.1514 0 0 0.1514 614.6517 521.5466)">
			</image>
		</g>
	</g>
	<g id="Pressure_Gauge">
		<g>
			<g>
				
					<image style="overflow:visible;enable-background:new    ;" width="505" height="511" xlink:href="B789F066.png"  transform="matrix(-2.304440e-17 -0.1433 -0.1433 2.304440e-17 681.2934 564.3128)">
				</image>
			</g>
		</g>
		<g>
			<g>
				
					<image style="overflow:visible;enable-background:new    ;" width="510" height="478" xlink:href="B789F079.png"  transform="matrix(-2.780444e-17 -0.1729 -0.1729 2.780444e-17 686.367 572.5895)">
				</image>
			</g>
		</g>
		<g>
			<line class="st13" x1="645.4" y1="496.6" x2="645.4" y2="503"/>
			<line class="st13" x1="634.9" y1="498.2" x2="636.8" y2="504.3"/>
			<line class="st13" x1="625.6" y1="502.8" x2="629.4" y2="508"/>
			<line class="st13" x1="618.4" y1="509.9" x2="623.5" y2="513.8"/>
			<line class="st13" x1="613.6" y1="518.8" x2="619.7" y2="520.9"/>
			<line class="st13" x1="611.9" y1="529.2" x2="618.4" y2="529.2"/>
			<line class="st13" x1="613.6" y1="539.4" x2="619.7" y2="537.3"/>
			<line class="st13" x1="618.4" y1="548.4" x2="623.6" y2="544.5"/>
			<line class="st13" x1="625.6" y1="555.4" x2="629.4" y2="550.1"/>
			<line class="st13" x1="634.8" y1="560" x2="636.8" y2="553.9"/>
			<line class="st13" x1="645.4" y1="561.7" x2="645.4" y2="555.1"/>
			<line class="st13" x1="655.9" y1="560" x2="653.9" y2="553.8"/>
			<line class="st13" x1="665.1" y1="555.5" x2="661.4" y2="550.1"/>
			<line class="st13" x1="672.4" y1="548.4" x2="667.2" y2="544.5"/>
			<line class="st13" x1="677.2" y1="539.4" x2="670.9" y2="537.3"/>
			<line class="st13" x1="678.9" y1="529.2" x2="672.3" y2="529.2"/>
		</g>
		<g>
			<line class="st13" x1="645.4" y1="496.6" x2="645.4" y2="503"/>
			<line class="st13" x1="654.2" y1="497.7" x2="652.6" y2="503.9"/>
			<line class="st13" x1="662.2" y1="501" x2="659" y2="506.6"/>
			<line class="st13" x1="669" y1="506" x2="664.5" y2="510.7"/>
			<line class="st13" x1="674.3" y1="512.6" x2="668.7" y2="516"/>
			<line class="st13" x1="677.7" y1="520.4" x2="671.4" y2="522.2"/>
			<line class="st13" x1="678.9" y1="529.2" x2="672.3" y2="529.2"/>
		</g>
		<polygon class="st14" points="646.5,530.2 634.4,542.4 636,544.1 629,545.6 630.7,538.6 632.5,540.5 644.7,528.3 		"/>
		<circle class="st15" cx="645.6" cy="529.2" r="3.4"/>
	</g>
</g>
<g id="Pressure_Reading_00000111184780983431388460000002775983700805789587_">
	<g>
		<g>
			
				<image style="overflow:visible;enable-background:new    ;" width="506" height="139" xlink:href="B789F01C.png"  transform="matrix(0.1008 0 0 0.1008 205.0418 124.725)">
			</image>
		</g>
	</g>
	<g id="Fringe_2_00000042014325308729414950000005236994895868405951_">
		<g>
			
				<image style="overflow:visible;enable-background:new    ;" width="328" height="505" xlink:href="../Venturimeter Exp/C52FA757.png"  transform="matrix(-5.787439e-02 0 0 -5.787439e-02 214.4593 146.3445)">
			</image>
		</g>
	</g>
	<g>
		<g>
			
				<image style="overflow:visible;enable-background:new    ;" width="288" height="508" xlink:href="B789F02A.png"  transform="matrix(5.909139e-02 0 0 5.909139e-02 191.5551 116.722)">
			</image>
		</g>
	</g>
	<g>
		<g>
			
				<image style="overflow:visible;enable-background:new    ;" width="509" height="92" xlink:href="B789F02B.png"  transform="matrix(0.1514 0 0 0.1514 123.0523 124.7689)">
			</image>
		</g>
	</g>
	<g id="Pressure_Gauge_00000023987907149340359200000017337667907549501364_">
		<g>
			<g>
				
					<image style="overflow:visible;enable-background:new    ;" width="505" height="511" xlink:href="B789F066.png"  transform="matrix(8.774594e-18 -0.1433 0.1433 8.774594e-18 56.4106 167.5351)">
				</image>
			</g>
		</g>
		<g>
			<g>
				
					<image style="overflow:visible;enable-background:new    ;" width="510" height="478" xlink:href="B789F079.png"  transform="matrix(1.058707e-17 -0.1729 0.1729 1.058707e-17 51.337 175.8118)">
				</image>
			</g>
		</g>
		<g>
			<line class="st13" x1="92.3" y1="99.8" x2="92.3" y2="106.2"/>
			<line class="st13" x1="102.8" y1="101.4" x2="100.9" y2="107.5"/>
			<line class="st13" x1="112.1" y1="106" x2="108.3" y2="111.2"/>
			<line class="st13" x1="119.3" y1="113.1" x2="114.2" y2="117"/>
			<line class="st13" x1="124.1" y1="122" x2="118" y2="124.1"/>
			<line class="st13" x1="125.8" y1="132.4" x2="119.3" y2="132.4"/>
			<line class="st13" x1="124.1" y1="142.6" x2="118" y2="140.5"/>
			<line class="st13" x1="119.3" y1="151.6" x2="114.1" y2="147.7"/>
			<line class="st13" x1="112.1" y1="158.6" x2="108.3" y2="153.3"/>
			<line class="st13" x1="102.9" y1="163.2" x2="100.9" y2="157.1"/>
			<line class="st13" x1="92.3" y1="164.9" x2="92.3" y2="158.3"/>
			<line class="st13" x1="81.8" y1="163.2" x2="83.8" y2="157"/>
			<line class="st13" x1="72.6" y1="158.7" x2="76.3" y2="153.3"/>
			<line class="st13" x1="65.3" y1="151.6" x2="70.5" y2="147.7"/>
			<line class="st13" x1="60.5" y1="142.6" x2="66.8" y2="140.5"/>
			<line class="st13" x1="58.8" y1="132.4" x2="65.4" y2="132.4"/>
		</g>
		<g>
			<line class="st13" x1="92.3" y1="99.8" x2="92.3" y2="106.2"/>
			<line class="st13" x1="83.5" y1="100.9" x2="85.1" y2="107.1"/>
			<line class="st13" x1="75.5" y1="104.2" x2="78.7" y2="109.8"/>
			<line class="st13" x1="68.7" y1="109.2" x2="73.2" y2="113.9"/>
			<line class="st13" x1="63.4" y1="115.8" x2="69" y2="119.2"/>
			<line class="st13" x1="60" y1="123.6" x2="66.3" y2="125.4"/>
			<line class="st13" x1="58.8" y1="132.4" x2="65.4" y2="132.4"/>
		</g>
		<polygon class="st14" points="91.2,133.4 103.3,145.6 101.7,147.3 108.7,148.8 107,141.8 105.2,143.7 93,131.5 		"/>
		<circle class="st15" cx="92.1" cy="132.4" r="3.4"/>
	</g>
</g>
<circle id="Pressure_Pipe_Corner" class="st35" cx="473.8" cy="529.9" r="24.3"/>
<circle id="Suction_Pipe_Corner_00000182521152408575236420000012086621212719087260_" class="st4" cx="254.2" cy="131.9" r="13.7"/>
<path class="st36" d="M112.3,392.3"/>
<ellipse id="Suction_Pipe_Opening_00000107564389828542135420000011555732137292899509_" class="st3" cx="473.9" cy="568.1" rx="17.4" ry="5.3"/>
</svg>
